<?xml version="1.0" encoding="UTF-8"?><svg id="Layer_1" xmlns="http://www.w3.org/2000/svg" viewBox="0 0 256 68.05"><path d="M0,52.13V4.03C0,3.38,.43,2.88,1.08,2.88H11.38c.65,0,1.15,.5,1.15,1.15V42.2h14.04c.65,0,1.08,.43,1.08,1.08v8.93c0,.65-.43,1.08-1.08,1.08H1.08C.43,53.28,0,52.78,0,52.13Z"/><path d="M30.48,35.64c0-10.37,7.85-18.51,18.65-18.51s18.58,8.14,18.58,18.51-7.85,18.51-18.58,18.51-18.65-8.14-18.65-18.51Zm18.65,7.42c3.82,0,6.98-2.74,6.98-7.42s-3.17-7.42-6.98-7.42-7.06,2.74-7.06,7.42,3.17,7.42,7.06,7.42Z"/><path d="M75.08,63.65c-.79-.5-.79-1.58-.43-2.3l2.52-4.9c.43-.79,1.15-1.15,2.09-.65,3.1,1.66,6.12,2.52,9,2.52,4.1,0,8.64-1.73,8.64-7.27v-2.81c-2.09,2.59-5.33,4.18-9.86,4.18-9.87,0-16.35-7.27-16.35-17.64s6.48-17.64,16.35-17.64c4.75,0,7.85,1.51,9.94,4.18l.22-2.16c0-.65,.5-1.15,1.15-1.15h8.93c.65,0,1.15,.5,1.15,1.15v31.9c0,13.32-10.44,16.99-18.94,16.99-5.4,0-10.58-1.44-14.4-4.39Zm14.4-22.03c4.03,0,6.91-2.66,6.91-6.91s-2.88-6.77-6.91-6.77-6.98,2.66-6.98,6.84,2.95,6.84,6.98,6.84Z"/><path d="M114.77,6.48c0-3.6,2.74-6.48,6.55-6.48s6.55,2.88,6.55,6.48-2.81,6.55-6.55,6.55-6.55-2.88-6.55-6.55Zm.43,12.67c0-.65,.5-1.15,1.15-1.15h9.94c.65,0,1.15,.5,1.15,1.15V52.13c0,.65-.5,1.15-1.15,1.15h-9.94c-.65,0-1.15-.5-1.15-1.15V19.15Z"/><path d="M134.14,52.13V19.15c0-.65,.5-1.15,1.15-1.15h9.5c.58,0,1.08,.29,1.08,1.22l.36,3.96c2.02-3.6,5.11-6.05,10.08-6.05,7.27,0,12.74,5.47,12.74,14.62v20.38c0,.65-.58,1.15-1.22,1.15h-9.72c-.65,0-1.15-.5-1.15-1.15v-17.35c0-4.39-1.8-6.55-5.33-6.55s-5.4,2.16-5.4,6.55v17.35c0,.65-.5,1.15-1.15,1.15h-9.79c-.65,0-1.15-.5-1.15-1.15Z"/></svg>