<?xml version="1.0" encoding="UTF-8"?><svg id="Layer_1" xmlns="http://www.w3.org/2000/svg" viewBox="0 0 256 140.62"><path d="M.09,52.06L16.65,3.74c.22-.58,.79-.86,1.37-.86h10.87c.58,0,1.22,.29,1.44,.86l16.56,48.32c.29,.72-.14,1.22-.94,1.22h-10.73c-.58,0-1.08-.22-1.3-.86l-1.87-6.05H14.85l-1.87,6.05c-.22,.65-.65,.86-1.22,.86H1.03c-.79,0-1.22-.5-.94-1.22Zm28.51-16.78l-5.11-16.49-5.18,16.49h10.3Z"/><path d="M48.83,35.64c0-10.37,6.7-18.51,16.42-18.51,4.39,0,7.49,1.3,9.79,3.82V2.95c0-.65,.5-1.15,1.15-1.15h9.86c.65,0,1.15,.5,1.15,1.15V52.13c0,.65-.58,1.15-1.22,1.15h-8.86c-.65,0-1.15-.5-1.15-1.15l-.14-2.95c-2.38,3.1-5.76,4.97-10.58,4.97-9.72,0-16.42-8.06-16.42-18.51Zm19.15,7.56c4.25,0,7.2-3.02,7.2-7.63s-2.95-7.49-7.2-7.49-7.34,3.02-7.34,7.56,3.17,7.56,7.34,7.56Z"/><path d="M93.91,52.13V19.15c0-.65,.5-1.15,1.15-1.15h9.5c.58,0,1.08,.29,1.08,1.22l.29,3.53c2.02-3.31,5.26-5.62,9.86-5.62,4.32,0,7.78,2.09,9.79,5.9,2.09-3.46,5.62-5.9,10.8-5.9,7.7,0,12.46,5.4,12.46,14.62v20.38c0,.65-.5,1.15-1.15,1.15h-9.79c-.65,0-1.15-.5-1.15-1.15v-17.5c0-4.25-1.44-6.41-4.68-6.41s-4.68,2.16-4.68,6.41v17.5c0,.65-.5,1.15-1.15,1.15h-9.65c-.79,0-1.3-.5-1.3-1.15v-17.5c0-4.25-1.37-6.41-4.61-6.41-3.02,0-4.68,2.16-4.68,6.41v17.5c0,.65-.5,1.15-1.15,1.15h-9.79c-.65,0-1.15-.5-1.15-1.15Z"/><path d="M155.04,6.48c0-3.6,2.74-6.48,6.55-6.48s6.55,2.88,6.55,6.48-2.81,6.55-6.55,6.55-6.55-2.88-6.55-6.55Zm.43,12.67c0-.65,.5-1.15,1.15-1.15h9.94c.65,0,1.15,.5,1.15,1.15V52.13c0,.65-.5,1.15-1.15,1.15h-9.94c-.65,0-1.15-.5-1.15-1.15V19.15Z"/><path d="M174.41,52.13V19.15c0-.65,.5-1.15,1.15-1.15h9.5c.58,0,1.08,.29,1.08,1.22l.36,3.96c2.02-3.6,5.11-6.05,10.08-6.05,7.27,0,12.75,5.47,12.75,14.62v20.38c0,.65-.58,1.15-1.22,1.15h-9.72c-.65,0-1.15-.5-1.15-1.15v-17.35c0-4.39-1.8-6.55-5.33-6.55s-5.4,2.16-5.4,6.55v17.35c0,.65-.5,1.15-1.15,1.15h-9.79c-.65,0-1.15-.5-1.15-1.15Z"/><path d="M1.17,114.7c0-14.91,11.95-25.99,26.14-25.99,7.27,0,13.47,2.95,17.93,7.63,.5,.5,.22,1.01-.14,1.44l-6.41,6.84c-.36,.5-1.01,.5-1.44,.14-2.66-2.3-5.98-3.74-9.94-3.74-7.63,0-13.47,5.76-13.47,13.68s5.83,13.61,13.47,13.61c3.96,0,7.27-1.44,9.94-3.74,.43-.36,1.08-.36,1.51,.14l6.34,6.84c.36,.36,.65,.86,.14,1.37-4.46,4.75-10.66,7.7-17.93,7.7-14.19,0-26.14-11.02-26.14-25.92Z"/><path d="M47.96,122.04c0-10.37,7.85-18.51,18.65-18.51s18.58,8.14,18.58,18.51-7.85,18.51-18.58,18.51-18.65-8.14-18.65-18.51Zm18.65,7.42c3.82,0,6.98-2.74,6.98-7.42s-3.17-7.42-6.98-7.42-7.06,2.74-7.06,7.42,3.17,7.42,7.06,7.42Z"/><path d="M89.94,138.53v-32.98c0-.65,.5-1.15,1.15-1.15h9.5c.58,0,1.08,.29,1.08,1.22l.36,3.96c2.02-3.6,5.11-6.05,10.08-6.05,7.27,0,12.75,5.47,12.75,14.62v20.38c0,.65-.58,1.15-1.22,1.15h-9.72c-.65,0-1.15-.5-1.15-1.15v-17.35c0-4.39-1.8-6.55-5.33-6.55s-5.4,2.16-5.4,6.55v17.35c0,.65-.5,1.15-1.15,1.15h-9.79c-.65,0-1.15-.5-1.15-1.15Z"/><path d="M129.74,134.43c-.36-.43-.29-1.37,.29-2.16l3.17-4.46c.65-1.01,1.3-.79,1.87-.43,3.24,2.16,5.62,3.17,7.85,3.17,1.58,0,2.59-.43,2.59-1.73,0-1.01-.65-1.51-2.81-2.45l-4.61-1.8c-4.68-1.8-7.63-5.04-7.63-9.87,0-7.13,6.12-11.16,13.03-11.16,4.82,0,9.29,1.94,12.46,5.69,.43,.5,.29,1.08-.07,1.44l-4.1,4.9c-.43,.5-1.01,.43-1.66,0-2.3-1.73-4.18-2.66-5.98-2.66-1.94,0-2.23,1.08-2.23,1.8,0,.94,1.01,1.73,2.23,2.16l5.62,2.23c4.39,1.73,7.85,4.97,7.78,10.3-.14,7.42-6.48,11.16-13.83,11.16-5.98,0-10.8-2.38-13.97-6.12Z"/><path d="M160.15,122.04c0-10.37,7.85-18.51,18.65-18.51s18.58,8.14,18.58,18.51-7.85,18.51-18.58,18.51-18.65-8.14-18.65-18.51Zm18.65,7.42c3.82,0,6.98-2.74,6.98-7.42s-3.17-7.42-6.98-7.42-7.06,2.74-7.06,7.42,3.17,7.42,7.06,7.42Z"/><path d="M202.13,138.53v-49.18c0-.65,.5-1.15,1.15-1.15h9.86c.65,0,1.15,.5,1.15,1.15v49.18c0,.65-.5,1.15-1.15,1.15h-9.86c-.65,0-1.15-.5-1.15-1.15Z"/><path d="M219.1,121.9c0-10.37,7.27-18.36,18.29-18.36s17.07,7.85,17.07,16.92c0,3.82-.94,6.19-4.46,6.19h-19.08c1.3,3.24,4.39,4.46,8.78,4.46,2.02,0,4.32-.07,7.27-1.66,.58-.29,.94-.14,1.3,.43l3.31,4.61c.29,.43,.36,1.01-.36,1.66-2.95,3.02-7.49,4.39-12.53,4.39-11.59,0-19.59-7.78-19.59-18.65Zm24.63-3.53c-.72-3.74-3.31-4.97-6.26-4.97s-5.83,1.37-6.77,4.97h13.03Z"/></svg>